<?xml version="1.0" encoding="UTF-8"?>
<svg version="1.1" xmlns="http://www.w3.org/2000/svg" width="512" height="512">
<path d="M0 0 C0.68489502 0.31791504 1.36979004 0.63583008 2.07543945 0.96337891 C30.80577648 13.55932837 62.87934507 12.94161857 91.89160156 1.8203125 C94.34120533 0.8479164 96.70062725 -0.09722695 98.95825195 -1.46630859 C106.39744805 -4.43632985 114.11277294 -0.89250879 121.1574707 1.62353516 C122.3218718 2.02865829 123.48627289 2.43378143 124.68595886 2.85118103 C128.40327609 4.14787049 132.11425704 5.46174818 135.82543945 6.77587891 C138.27752945 7.63309781 140.73000036 8.48922795 143.18286133 9.34423828 C150.1358392 11.77385064 157.07759474 14.23390915 164.01293945 16.71337891 C164.9950943 17.06432617 165.97724915 17.41527344 166.98916626 17.77685547 C169.61666235 18.71932096 172.24127629 19.66925669 174.86450195 20.62353516 C175.6073494 20.89085953 176.35019684 21.1581839 177.11555481 21.43360901 C194.65613453 27.87782123 209.42274707 40.8138901 217.98403931 57.4894104 C222.20179178 66.60608582 225.07071109 76.39260834 228.26293945 85.90087891 C229.10294042 88.37587555 229.94384721 90.85056493 230.78564453 93.32495117 C232.44442086 98.20784494 234.0953407 103.09328793 235.73999023 107.98095703 C237.42294793 112.97747144 239.12708486 117.96599088 240.85269165 122.94792175 C241.90805892 125.99621983 242.95384491 129.04773663 243.99694824 132.10025024 C244.46015107 133.45045473 244.92693988 134.79943516 245.39758301 136.14706421 C249.98841858 149.3250908 249.98841858 149.3250908 249.01293945 155.71337891 C247.33179555 158.26314846 245.84340105 159.47775779 242.89027405 160.31562805 C240.13830277 160.82181235 237.38999721 161.20948399 234.61450195 161.56494141 C233.58795502 161.70991058 232.56140808 161.85487976 231.50375366 162.00424194 C228.21710989 162.46472392 224.92784926 162.90190822 221.63793945 163.33837891 C219.46194439 163.63891819 217.28615982 163.94098573 215.1105957 164.24462891 C210.94278825 164.82399955 206.77398042 165.39480881 202.60375977 165.95654297 C196.06795492 166.83765401 189.53948804 167.76609368 183.01293945 168.71337891 C184.38873776 174.16628914 185.92382815 179.52483157 187.77075195 184.83837891 C188.0864917 185.75208252 188.40223145 186.66578613 188.72753906 187.60717773 C189.36631231 189.44142673 190.01525878 191.27217077 190.67529297 193.09887695 C192.5581072 198.52148276 193.74127584 202.9676141 193.01293945 208.71337891 C191.52856445 211.13525391 191.52856445 211.13525391 189.01293945 212.71337891 C186.15123852 213.32249597 183.6456446 213.71801756 180.76293945 213.96337891 C179.42071137 214.09135669 178.078618 214.22075207 176.7366333 214.35125732 C175.50781433 214.47075745 174.27899536 214.59025757 173.01293945 214.71337891 C173.06562925 215.51578947 173.11831905 216.31820004 173.17260551 217.14492607 C174.46221786 236.92045909 175.54920387 256.69544493 176.42730188 276.49391794 C176.55554775 279.37896533 176.68547854 282.2639361 176.81531417 285.14891231 C177.12197033 291.96488045 177.4256051 298.78097835 177.72729492 305.59716797 C178.0350137 312.54812035 178.34850764 319.49879612 178.66468155 326.4493686 C178.94004005 332.50789998 179.21151647 338.56659754 179.48008239 344.6254338 C179.6388034 348.20504615 179.79888649 351.78458209 179.96289444 355.36395645 C180.55681657 368.3614808 181.1224499 381.36170535 181.27807617 394.37304688 C181.29854067 395.27182116 181.31900517 396.17059544 181.3400898 397.0966053 C181.35355506 400.62691999 181.34682674 403.04873379 179.74636841 406.23464966 C176.44809327 409.04829593 173.06602788 408.83727269 168.87719727 408.8269043 C167.85644104 408.82682877 166.83568481 408.82675323 165.78399658 408.82667542 C164.68907898 408.82151413 163.59416138 408.81635284 162.46606445 408.81103516 C161.33972595 408.80962021 160.21338745 408.80820526 159.05291748 408.80674744 C155.4562311 408.8011509 151.85960701 408.788599 148.26293945 408.77587891 C145.82413827 408.77086346 143.38533611 408.76630063 140.9465332 408.76220703 C134.96864737 408.7511826 128.99079786 408.73444789 123.01293945 408.71337891 C123.17370468 409.48745087 123.33446991 410.26152283 123.50010681 411.05905151 C124.00465736 413.67051232 124.21595291 416.12855556 124.3293457 418.78369141 C124.3715625 419.7540332 124.4137793 420.724375 124.45727539 421.72412109 C124.5157666 423.26567871 124.5157666 423.26567871 124.57543945 424.83837891 C124.61572266 425.89702148 124.65600586 426.95566406 124.69750977 428.04638672 C124.81261923 431.26848446 124.91575053 434.49069375 125.01293945 437.71337891 C125.04307129 438.6753418 125.07320313 439.63730469 125.10424805 440.62841797 C125.17707991 443.24015934 125.22554487 445.8509162 125.26293945 448.46337891 C125.2949646 449.63151123 125.2949646 449.63151123 125.32763672 450.82324219 C125.34640012 453.87928913 125.29482368 456.20005068 123.80632019 458.91070557 C121.46507691 461.26408026 120.27370432 461.22685283 116.99072266 461.25927734 C115.9698909 461.27899597 114.94905914 461.2987146 113.89729309 461.31903076 C112.24717476 461.32087372 112.24717476 461.32087372 110.5637207 461.32275391 C109.43596725 461.33929016 108.30821381 461.35582642 107.14628601 461.37286377 C103.53928265 461.42150349 99.93270135 461.4427509 96.32543945 461.46337891 C93.88205866 461.4915251 91.43869766 461.5214506 88.99536133 461.55322266 C83.00129774 461.62726671 77.00735363 461.67881549 71.01293945 461.71337891 C71.04192322 462.3489119 71.07090698 462.98444489 71.10076904 463.63923645 C72.20870676 488.08293925 72.20870676 488.08293925 72.26293945 496.40087891 C72.29387695 497.69735352 72.29387695 497.69735352 72.32543945 499.02001953 C72.3305957 499.85082031 72.33575195 500.68162109 72.34106445 501.53759766 C72.35041016 502.25004639 72.35975586 502.96249512 72.36938477 503.6965332 C71.8904918 506.40621457 70.86988789 507.69731828 69.01293945 509.71337891 C66.97025633 510.21477556 66.97025633 510.21477556 64.57604218 510.21674347 C63.66275288 510.22717446 62.74946359 510.23760545 61.80849886 510.24835253 C60.80374624 510.23942964 59.79899362 510.23050675 58.76379395 510.22131348 C57.6975402 510.22755344 56.63128646 510.2337934 55.532722 510.24022245 C51.94192182 510.2562412 48.35179214 510.24351307 44.76098633 510.23095703 C42.19401145 510.23637418 39.62703969 510.24349453 37.06007385 510.25219727 C30.80091006 510.27000857 24.54193784 510.266131 18.28276646 510.2545467 C13.19703478 510.24552286 8.11135689 510.24428381 3.02561951 510.24864197 C1.94097454 510.24956137 1.94097454 510.24956137 0.83441755 510.25049934 C-0.63441767 510.25177821 -2.10325287 510.25307506 -3.57208806 510.2543897 C-17.3539644 510.26580314 -31.1357344 510.25266987 -44.9175933 510.23118824 C-56.74988434 510.21331653 -68.58201843 510.21642043 -80.41430664 510.23486328 C-94.14596566 510.25625656 -107.87753142 510.26470444 -121.60920477 510.25241423 C-123.0727167 510.25113999 -124.53622864 510.24988251 -125.9997406 510.24864197 C-126.71986628 510.24802487 -127.43999196 510.24740776 -128.18193963 510.24677196 C-133.26312591 510.24331442 -138.34425316 510.24915608 -143.4254303 510.25856018 C-150.26101103 510.27093287 -157.09628959 510.26215759 -163.9318409 510.23898315 C-166.44616768 510.23367711 -168.96051934 510.23524195 -171.47483635 510.24403381 C-174.8962049 510.25489773 -178.31660866 510.24133575 -181.73791504 510.22131348 C-182.74266766 510.23023636 -183.74742028 510.23915925 -184.78261995 510.24835253 C-185.69590925 510.23792154 -186.60919854 510.22749055 -187.55016327 510.21674347 C-188.73529927 510.21576936 -188.73529927 510.21576936 -189.94437742 510.21477556 C-191.98706055 509.71337891 -191.98706055 509.71337891 -193.74236536 507.90719938 C-195.655834 504.53464141 -195.36620612 501.18585754 -195.27954102 497.41650391 C-195.26874449 496.51474426 -195.25794796 495.61298462 -195.24682426 494.68389893 C-194.98330906 479.20298025 -194.15935746 463.72768553 -193.43749094 448.26305389 C-193.21624693 443.50266842 -193.00030509 438.74204193 -192.78366089 433.98144531 C-192.41861932 425.97625057 -192.05002715 417.97122597 -191.67895508 409.96630859 C-191.20832598 399.81335394 -190.74347012 389.66014396 -190.28053474 379.50683594 C-189.87640651 370.64430542 -189.46959259 361.78189841 -189.0623641 352.91950989 C-188.93469816 350.13901854 -188.80736854 347.35851195 -188.68008804 344.57800293 C-187.56665523 320.28292666 -186.34060241 295.99629615 -184.98706055 271.71337891 C-186.2038254 271.57942152 -187.42059025 271.44546413 -188.67422676 271.30744743 C-190.29682857 271.12816047 -191.91942704 270.94884329 -193.54202271 270.76950073 C-194.34087544 270.68163394 -195.13972818 270.59376715 -195.96278858 270.50323772 C-206.68475035 269.31658356 -217.36715263 267.85139535 -228.05102539 266.36425781 C-230.61583669 266.01034343 -233.18162759 265.66346457 -235.74829102 265.32324219 C-239.49434598 264.82613761 -243.23682749 264.30737095 -246.97924805 263.78369141 C-248.70097733 263.56158493 -248.70097733 263.56158493 -250.45748901 263.33499146 C-251.52025055 263.18158295 -252.58301208 263.02817444 -253.67797852 262.87011719 C-255.07546829 262.67931076 -255.07546829 262.67931076 -256.50119019 262.48464966 C-259.61483148 261.51860553 -260.98470084 260.26303164 -262.98706055 257.71337891 C-263.70470085 251.45633576 -262.27666791 246.47644204 -260.2331543 240.60009766 C-259.94086441 239.72867126 -259.64857452 238.85724487 -259.34742737 237.95941162 C-258.38535396 235.10226404 -257.40566621 232.25154184 -256.42456055 229.40087891 C-255.74612044 227.40575742 -255.06839651 225.41039227 -254.39135742 223.41479492 C-252.98169855 219.26876496 -251.56340193 215.12582144 -250.13891602 210.98486328 C-248.37541072 205.85549856 -246.63471339 200.71877795 -244.90211487 195.5789032 C-243.58978611 191.6938864 -242.26519256 187.8131354 -240.93704224 183.9335022 C-240.3110963 182.10002293 -239.6889902 180.26522758 -239.0710144 178.42904663 C-234.00682359 163.41645602 -228.3543503 151.13876384 -216.98706055 139.71337891 C-216.32319336 139.01470703 -215.65932617 138.31603516 -214.9753418 137.59619141 C-207.48054132 130.25842484 -197.07023501 124.68267037 -186.79956055 122.46337891 C-183.81706715 121.58385344 -183.15891995 121.01401319 -181.5847168 118.26025391 C-180.74893558 116.17747643 -179.95639297 114.07696332 -179.2019043 111.96337891 C-173.83744437 97.61215491 -161.29962609 85.58379822 -147.89575195 78.57080078 C-145.75742647 77.61022275 -143.6109307 76.89712185 -141.3737793 76.19775391 C-132.19130779 73.75624618 -132.19130779 73.75624618 -125.7878418 67.36181641 C-124.47536733 64.18422492 -123.55941151 60.89516909 -122.61645508 57.59277344 C-118.08618258 44.06521809 -104.35307059 31.98455663 -92.01586914 25.67724609 C-73.86746718 17.05511722 -53.9274767 11.53651959 -34.9230957 5.12158203 C-33.91177078 4.77997543 -32.90044586 4.43836884 -31.85847473 4.08641052 C-29.94151619 3.43945377 -28.02412848 2.79376681 -26.10624695 2.14955139 C-22.73323678 1.01163647 -19.3957953 -0.1177748 -16.10473633 -1.47729492 C-10.40312705 -3.65631668 -5.32563672 -2.3688143 0 0 Z " fill="#EFC319" transform="translate(262.987060546875,2.28662109375)"/>
<path d="M0 0 C0.68489502 0.31791504 1.36979004 0.63583008 2.07543945 0.96337891 C30.80577648 13.55932837 62.87934507 12.94161857 91.89160156 1.8203125 C94.34120533 0.8479164 96.70062725 -0.09722695 98.95825195 -1.46630859 C106.39744805 -4.43632985 114.11277294 -0.89250879 121.1574707 1.62353516 C122.3218718 2.02865829 123.48627289 2.43378143 124.68595886 2.85118103 C128.40327609 4.14787049 132.11425704 5.46174818 135.82543945 6.77587891 C138.27752945 7.63309781 140.73000036 8.48922795 143.18286133 9.34423828 C150.1358392 11.77385064 157.07759474 14.23390915 164.01293945 16.71337891 C164.9950943 17.06432617 165.97724915 17.41527344 166.98916626 17.77685547 C169.61666235 18.71932096 172.24127629 19.66925669 174.86450195 20.62353516 C175.6073494 20.89085953 176.35019684 21.1581839 177.11555481 21.43360901 C194.65613453 27.87782123 209.42274707 40.8138901 217.98403931 57.4894104 C222.20179178 66.60608582 225.07071109 76.39260834 228.26293945 85.90087891 C229.10294042 88.37587555 229.94384721 90.85056493 230.78564453 93.32495117 C232.44442086 98.20784494 234.0953407 103.09328793 235.73999023 107.98095703 C237.42294793 112.97747144 239.12708486 117.96599088 240.85269165 122.94792175 C241.90805892 125.99621983 242.95384491 129.04773663 243.99694824 132.10025024 C244.46015107 133.45045473 244.92693988 134.79943516 245.39758301 136.14706421 C249.98841858 149.3250908 249.98841858 149.3250908 249.01293945 155.71337891 C247.33179555 158.26314846 245.84340105 159.47775779 242.89027405 160.31562805 C240.13830277 160.82181235 237.38999721 161.20948399 234.61450195 161.56494141 C233.58795502 161.70991058 232.56140808 161.85487976 231.50375366 162.00424194 C228.21710989 162.46472392 224.92784926 162.90190822 221.63793945 163.33837891 C219.46194439 163.63891819 217.28615982 163.94098573 215.1105957 164.24462891 C210.94278825 164.82399955 206.77398042 165.39480881 202.60375977 165.95654297 C196.06795492 166.83765401 189.53948804 167.76609368 183.01293945 168.71337891 C184.38873776 174.16628914 185.92382815 179.52483157 187.77075195 184.83837891 C188.0864917 185.75208252 188.40223145 186.66578613 188.72753906 187.60717773 C189.36631231 189.44142673 190.01525878 191.27217077 190.67529297 193.09887695 C192.5581072 198.52148276 193.74127584 202.9676141 193.01293945 208.71337891 C191.09009535 211.50127875 189.81236472 212.46283205 186.5949707 213.47119141 C185.68102539 213.59236328 184.76708008 213.71353516 183.82543945 213.83837891 C182.20508789 214.06267578 182.20508789 214.06267578 180.55200195 214.29150391 C179.38411133 214.43072266 178.2162207 214.56994141 177.01293945 214.71337891 C175.29204102 214.92220703 175.29204102 214.92220703 173.53637695 215.13525391 C171.58021051 215.36632856 169.62398725 215.59704288 167.66674805 215.81884766 C159.58367603 216.7383833 151.51786274 217.79217622 143.45043945 218.83837891 C142.73802094 218.93068787 142.02560242 219.02299683 141.29159546 219.11810303 C137.19854386 219.64858658 133.10566762 220.18040492 129.01293945 220.71337891 C128.62549561 219.56562988 128.23805176 218.41788086 127.83886719 217.23535156 C126.36870814 212.88385084 124.8930946 208.53421475 123.41601562 204.18505859 C122.78339429 202.31998531 122.15215771 200.45444163 121.52246094 198.58837891 C108.26205521 157.08312755 108.26205521 157.08312755 76.61083984 128.83300781 C69.88550782 125.52359474 62.98093448 123.05837822 55.8840332 120.67431641 C54.55963708 120.22242169 53.23551019 119.76973723 51.91163635 119.3163147 C48.46119861 118.13670494 45.00748754 116.96700637 41.55285645 115.79974365 C37.37130697 114.38489261 33.19366088 112.95856728 29.01554203 111.53362465 C25.761981 110.42418578 22.50770636 109.31704371 19.2518158 108.21444702 C12.88544474 106.05532979 6.56038021 103.83670061 0.28800964 101.41636658 C-5.85578779 99.51795752 -11.34940728 102.53825689 -16.86206055 105.02587891 C-28.6716087 110.10942476 -41.08392584 113.30739792 -53.98706055 113.71337891 C-55.20780273 113.75333984 -56.42854492 113.79330078 -57.6862793 113.83447266 C-76.14463752 114.2314266 -93.88226158 111.08677364 -110.53369141 102.99975586 C-117.5184878 99.69770484 -122.20146329 100.54642928 -129.22000122 103.05023193 C-130.13570892 103.38766418 -131.05141663 103.72509644 -131.99487305 104.07275391 C-132.9567453 104.41840393 -133.91861755 104.76405396 -134.90963745 105.12017822 C-137.98041404 106.22567396 -141.04629028 107.34408353 -144.11206055 108.46337891 C-148.13451313 109.91923321 -152.15854801 111.37069782 -156.18237305 112.82275391 C-157.62051361 113.3425885 -157.62051361 113.3425885 -159.08770752 113.8729248 C-178.03593893 120.71337891 -178.03593893 120.71337891 -181.98706055 120.71337891 C-180.7071761 108.98110478 -172.09846989 98.74058676 -163.98706055 90.71337891 C-163.32448242 90.01728516 -162.6619043 89.32119141 -161.97924805 88.60400391 C-154.08621934 80.86103278 -143.53279674 75.76025292 -132.86206055 73.15087891 C-129.10640936 71.89153238 -128.19869465 71.10065491 -126.2644043 67.56103516 C-125.215404 64.96281526 -124.3211318 62.32046972 -123.42456055 59.66650391 C-118.43361849 45.12828225 -105.48864336 32.5651105 -92.01586914 25.67724609 C-73.86746718 17.05511722 -53.9274767 11.53651959 -34.9230957 5.12158203 C-33.91177078 4.77997543 -32.90044586 4.43836884 -31.85847473 4.08641052 C-29.94151619 3.43945377 -28.02412848 2.79376681 -26.10624695 2.14955139 C-22.73323678 1.01163647 -19.3957953 -0.1177748 -16.10473633 -1.47729492 C-10.40312705 -3.65631668 -5.32563672 -2.3688143 0 0 Z " fill="#FE5364" transform="translate(262.987060546875,2.28662109375)"/>
<path d="M0 0 C1.29634944 0.61268918 2.58918712 1.23284929 3.87890625 1.859375 C31.3641105 14.50785641 62.51963317 14.6305145 90.953125 4.953125 C94.85117563 3.45152431 98.41080819 1.66482045 101.9375 -0.5703125 C108.71218621 -2.78978848 116.32916013 0.31762415 122.7421875 2.63671875 C123.60882019 2.94135544 124.47545288 3.24599213 125.36834717 3.55986023 C128.16694023 4.54619303 130.96044292 5.54611634 133.75390625 6.546875 C135.68715451 7.23235338 137.6206689 7.91708168 139.55444336 8.60107422 C143.39948978 9.96275436 147.24250331 11.32995543 151.08398438 12.70166016 C155.76414069 14.37137854 160.45238697 16.01668449 165.14453125 17.65234375 C167.59802036 18.51198546 170.05091574 19.37331074 172.50390625 20.234375 C173.58776611 20.61070068 174.67162598 20.98702637 175.78833008 21.37475586 C195.32464059 28.30207279 211.36005378 39.8641721 220.56867981 58.94517517 C223.51974274 65.3249873 226.0078952 71.73324833 228.21875 78.40234375 C228.55258194 79.39204666 228.88641388 80.38174957 229.23036194 81.40144348 C230.28533307 84.53145148 231.33265645 87.66394215 232.37890625 90.796875 C233.75942672 94.9165795 235.14352268 99.03506133 236.53125 103.15234375 C236.86598328 104.14575775 237.20071655 105.13917175 237.54559326 106.16268921 C239.95049272 113.2592312 242.50413405 120.28623123 245.17504883 127.28637695 C246.79495025 131.53709571 248.34177355 135.80634845 249.81640625 140.109375 C250.07550781 140.82867187 250.33460938 141.54796875 250.6015625 142.2890625 C252.29465607 147.25188704 253.02579052 151.36094268 252.44140625 156.609375 C250.51856215 159.39727484 249.24083151 160.35882815 246.0234375 161.3671875 C245.10949219 161.48835937 244.19554687 161.60953125 243.25390625 161.734375 C241.63355469 161.95867187 241.63355469 161.95867187 239.98046875 162.1875 C238.81257813 162.32671875 237.6446875 162.4659375 236.44140625 162.609375 C234.72050781 162.81820312 234.72050781 162.81820312 232.96484375 163.03125 C231.0086773 163.26232465 229.05245405 163.49303897 227.09521484 163.71484375 C219.01214283 164.6343794 210.94632953 165.68817231 202.87890625 166.734375 C202.16648773 166.82668396 201.45406921 166.91899292 200.72006226 167.01409912 C196.62701066 167.54458267 192.53413442 168.07640102 188.44140625 168.609375 C188.0539624 167.46162598 187.66651855 166.31387695 187.26733398 165.13134766 C185.79717494 160.77984694 184.3215614 156.43021085 182.84448242 152.08105469 C182.21186108 150.21598141 181.5806245 148.35043772 180.95092773 146.484375 C167.69052201 104.97912364 167.69052201 104.97912364 136.03930664 76.72900391 C129.31397461 73.41959083 122.40940127 70.95437432 115.3125 68.5703125 C113.98810388 68.11841778 112.66397699 67.66573333 111.34010315 67.21231079 C107.8896654 66.03270103 104.43595434 64.86300246 100.98132324 63.69573975 C96.79977377 62.2808887 92.62212768 60.85456337 88.44400883 59.42962074 C85.1904478 58.32018187 81.93617316 57.21303981 78.68028259 56.11044312 C72.31391154 53.95132589 65.98884701 51.7326967 59.71647644 49.31236267 C53.57267901 47.41395362 48.07905952 50.43425298 42.56640625 52.921875 C30.7568581 58.00542085 18.34454096 61.20339402 5.44140625 61.609375 C4.22066406 61.64933594 2.99992187 61.68929687 1.7421875 61.73046875 C-16.71617072 62.12742269 -34.45379478 58.98276974 -51.10522461 50.89575195 C-58.09002101 47.59370093 -62.77299649 48.44242538 -69.79153442 50.94622803 C-70.70724213 51.28366028 -71.62294983 51.62109253 -72.56640625 51.96875 C-73.5282785 52.31440002 -74.49015076 52.66005005 -75.48117065 53.01617432 C-78.55194724 54.12167005 -81.61782348 55.24007963 -84.68359375 56.359375 C-88.70604633 57.8152293 -92.73008122 59.26669391 -96.75390625 60.71875 C-98.19204681 61.23858459 -98.19204681 61.23858459 -99.65924072 61.7689209 C-118.60747214 68.609375 -118.60747214 68.609375 -122.55859375 68.609375 C-121.2787093 56.87710087 -112.67000309 46.63658286 -104.55859375 38.609375 C-103.89601563 37.91328125 -103.2334375 37.2171875 -102.55078125 36.5 C-93.82682821 27.94190158 -82.44920986 23.30429133 -70.90625 19.84765625 C-60.91705881 16.77212772 -51.05375346 13.37562497 -41.19311523 9.9128418 C-38.33616136 8.90960832 -35.47777957 7.91053017 -32.61914062 6.91210938 C-30.77205313 6.26586015 -28.92504492 5.61938424 -27.078125 4.97265625 C-26.23844681 4.67885574 -25.39876862 4.38505524 -24.53364563 4.08235168 C-20.72043635 2.74256506 -16.92603044 1.37379761 -13.15332031 -0.07641602 C-7.97981613 -1.96781598 -5.1347505 -2.00655453 0 0 Z " fill="#3B96D2" transform="translate(203.55859375,54.390625)"/>
<path d="M0 0 C2.33472461 30.99119161 3.86235016 61.97124091 5.00195312 93.02770996 C5.33155657 101.9940355 5.66950752 110.96003549 6.0132103 119.92583084 C6.13023552 123.0178491 6.242265 126.11001916 6.35379028 129.20223999 C6.42463606 131.08063458 6.49566069 132.95902243 6.56689453 134.83740234 C6.59598907 135.68177856 6.62508362 136.52615479 6.65505981 137.39611816 C6.82241005 141.68172263 7.20703857 145.77410218 8 150 C8.13677113 151.72045397 8.24231499 153.44367797 8.31640625 155.16796875 C8.35862305 156.13508789 8.40083984 157.10220703 8.44433594 158.09863281 C8.64708841 163.39868306 8.83929812 168.69848614 9 174 C9.03013184 174.9605127 9.06026367 175.92102539 9.09130859 176.91064453 C9.16416837 179.52385088 9.21261765 182.13607175 9.25 184.75 C9.2713501 185.52883545 9.2927002 186.3076709 9.31469727 187.11010742 C9.3334544 190.16479232 9.27821211 192.48960922 7.79911804 195.20306396 C6 197 6 197 3.66511536 197.48101807 C2.74800278 197.47213562 1.8308902 197.46325317 0.88598633 197.45410156 C-0.15486618 197.45379944 -1.19571869 197.45349731 -2.26811218 197.45318604 C-3.39006485 197.43254089 -4.51201752 197.41189575 -5.66796875 197.390625 C-6.81791824 197.38496521 -7.96786774 197.37930542 -9.15266418 197.37347412 C-12.8313634 197.35105474 -16.50909437 197.3008458 -20.1875 197.25 C-22.67902241 197.2299423 -25.17056006 197.21169026 -27.66210938 197.1953125 C-33.77507084 197.15117166 -39.88746626 197.08420349 -46 197 C-47.58933186 169.28207159 -49.08375214 141.56922623 -50.1131897 113.82437134 C-50.77329576 96.17800459 -51.72204858 78.55700158 -52.76211548 60.92929077 C-53.80023239 43.28905643 -54.59854803 25.66664687 -55 8 C-48.42181653 6.627498 -41.84486479 5.45784073 -35.1953125 4.4921875 C-34.30891083 4.36184113 -33.42250916 4.23149475 -32.50924683 4.09719849 C-30.6557683 3.82538386 -28.80209741 3.55487796 -26.94824219 3.28564453 C-24.11071024 2.87292153 -21.27409173 2.45428713 -18.4375 2.03515625 C-16.62765579 1.77048006 -14.81776168 1.50614489 -13.0078125 1.2421875 C-12.16300323 1.11721893 -11.31819397 0.99225037 -10.44778442 0.86349487 C-9.65951263 0.74982574 -8.87124084 0.63615662 -8.05908203 0.51904297 C-7.36976593 0.41848602 -6.68044983 0.31792908 -5.97024536 0.21432495 C-4 0 -4 0 0 0 Z " fill="#3B96D2" transform="translate(379,266)"/>
<path d="M0 0 C1.89780716 0.01414696 1.89780716 0.01414696 3.83395386 0.02857971 C5.1857119 20.61444125 6.33420984 41.19876373 7.24831629 61.80911875 C7.37656215 64.69416613 7.50649294 67.57913691 7.63632858 70.46411312 C7.94298474 77.28008125 8.2466195 84.09617916 8.54830933 90.91236877 C8.85602811 97.86332116 9.16952205 104.81399693 9.48569596 111.7645694 C9.76105445 117.82310078 10.03253087 123.88179835 10.3010968 129.94063461 C10.45981781 133.52024696 10.61990089 137.0997829 10.78390884 140.67915726 C11.37783098 153.67668161 11.9434643 166.67690616 12.09909058 179.68824768 C12.12978732 181.0364091 12.12978732 181.0364091 12.1611042 182.41180611 C12.17456946 185.9421208 12.16784115 188.36393459 10.56738281 191.54985046 C7.27718929 194.35660259 3.89345125 194.15425538 -0.28591919 194.15797424 C-1.81221199 194.16270248 -1.81221199 194.16270248 -3.36933899 194.16752625 C-5.00700981 194.1644899 -5.00700981 194.1644899 -6.67776489 194.16139221 C-7.80173172 194.16234894 -8.92569855 194.16330566 -10.08372498 194.16429138 C-12.45662492 194.16497144 -14.82952673 194.16312929 -17.2024231 194.15895081 C-20.84984468 194.15358516 -24.49714395 194.1589094 -28.14456177 194.16529846 C-30.44729642 194.16463794 -32.75003099 194.16335733 -35.05276489 194.16139221 C-36.69954475 194.16442856 -36.69954475 194.16442856 -38.3795929 194.16752625 C-39.38766495 194.16437408 -40.395737 194.16122192 -41.43435669 194.15797424 C-42.32608078 194.15717865 -43.21780487 194.15638306 -44.1365509 194.15556335 C-46.16604614 194.02857971 -46.16604614 194.02857971 -47.16604614 193.02857971 C-47.37103985 190.09511746 -47.51278982 187.18088333 -47.61502075 184.24317932 C-47.65096848 183.31907761 -47.6869162 182.39497589 -47.72395325 181.44287109 C-47.80190931 179.42244373 -47.87762881 177.40192917 -47.95142937 175.38134575 C-48.0695046 172.15042152 -48.19339533 168.91976606 -48.31877136 165.68911743 C-48.58570692 158.78163652 -48.84488448 151.87387461 -49.10354614 144.96607971 C-49.44103642 135.97500066 -49.78261087 126.98409135 -50.13088989 117.99342346 C-50.17296947 116.9011079 -50.21504906 115.80879234 -50.25840378 114.68337631 C-50.82665427 100.04639811 -51.51820808 85.42833967 -52.55982971 70.81689453 C-53.06984244 63.53886546 -53.26995452 56.32437645 -53.16604614 49.02857971 C-47.84235288 47.75533571 -42.67578803 46.77063741 -37.20901489 46.37232971 C-34.86466237 45.97786887 -33.1943377 45.26051385 -31.16604614 44.02857971 C-28.53985523 38.77619789 -31.54554672 31.46797404 -33.23245239 26.24342346 C-34.05525917 23.81449784 -34.8875019 21.38875081 -35.72854614 18.96607971 C-36.36566528 17.09532776 -36.36566528 17.09532776 -37.01565552 15.18678284 C-38.05761679 12.13114361 -39.10791128 9.07864789 -40.16604614 6.02857971 C-33.88181746 3.9606925 -27.5981506 3.21716622 -21.04104614 2.46607971 C-18.91324766 2.21642827 -16.78563541 1.96518326 -14.65823364 1.71217346 C-13.25613647 1.55059753 -13.25613647 1.55059753 -11.82571411 1.38575745 C-9.20445421 1.07614081 -9.20445421 1.07614081 -6.82278442 0.4858551 C-4.45271561 0.077921 -2.39324747 -0.01784015 0 0 Z " fill="#FE5364" transform="translate(432.1660461425781,216.97142028808594)"/>
<path d="M0 0 C87.45 0 174.9 0 265 0 C265.7089578 7.08957799 266.2094634 13.801364 266.25 20.875 C266.2809375 22.25945312 266.2809375 22.25945312 266.3125 23.671875 C266.31765625 24.56132812 266.3228125 25.45078125 266.328125 26.3671875 C266.3374707 27.16237793 266.34681641 27.95756836 266.35644531 28.77685547 C265.89927191 31.6282397 264.95621979 32.89053375 263 35 C260.95731688 35.50139666 260.95731688 35.50139666 258.56310272 35.50336456 C257.64981343 35.51379555 256.73652413 35.52422654 255.79555941 35.53497362 C254.79080678 35.52605073 253.78605416 35.51712785 252.75085449 35.50793457 C251.15147388 35.51729451 251.15147388 35.51729451 249.51978254 35.52684355 C245.92898237 35.5428623 242.33885268 35.53013416 238.74804688 35.51757812 C236.181072 35.52299527 233.61410024 35.53011563 231.0471344 35.53881836 C224.78797061 35.55662966 218.52899839 35.5527521 212.26982701 35.5411678 C207.18409533 35.53214395 202.09841744 35.53090491 197.01268005 35.53526306 C195.92803509 35.53618246 195.92803509 35.53618246 194.8214781 35.53712043 C193.35264288 35.5383993 191.88380767 35.53969615 190.41497248 35.5410108 C176.63309615 35.55242424 162.85132614 35.53929096 149.06946725 35.51780933 C137.2371762 35.49993763 125.40504212 35.50304152 113.57275391 35.52148438 C99.84109489 35.54287765 86.10952913 35.55132553 72.37785578 35.53903532 C70.91434385 35.53776109 69.4508319 35.53650361 67.98731995 35.53526306 C66.90713143 35.53433741 66.90713143 35.53433741 65.80512092 35.53339306 C60.72393464 35.52993551 55.64280738 35.53577717 50.56163025 35.54518127 C43.72604952 35.55755396 36.89077096 35.54877868 30.05521965 35.52560425 C27.54089287 35.5202982 25.02654121 35.52186305 22.5122242 35.53065491 C19.09085564 35.54151882 15.67045189 35.52795684 12.24914551 35.50793457 C10.74201658 35.5213189 10.74201658 35.5213189 9.20444059 35.53497362 C8.2911513 35.52454263 7.37786201 35.51411164 6.43689728 35.50336456 C5.64680661 35.50271515 4.85671594 35.50206574 4.04268312 35.50139666 C2 35 2 35 0.24497175 33.10748625 C-1.21344911 30.63867367 -1.36160836 29.2161594 -1.328125 26.3671875 C-1.32296875 25.47773438 -1.3178125 24.58828125 -1.3125 23.671875 C-1.291875 22.74890625 -1.27125 21.8259375 -1.25 20.875 C-1.24484375 19.97523438 -1.2396875 19.07546875 -1.234375 18.1484375 C-1.16370109 11.99980753 -0.61795305 6.17953046 0 0 Z " fill="#F29C1E" transform="translate(69,477)"/>
<path d="M0 0 C0.14695312 1.10214844 0.29390625 2.20429688 0.4453125 3.33984375 C2.56889781 18.12118004 6.11419457 32.70872092 15 45 C15.48726562 45.69222656 15.97453125 46.38445313 16.4765625 47.09765625 C21.44648198 53.45082918 28.08546402 57.09042778 35 61 C20.20214492 70.86523672 -7.0049562 68.22693913 -23.671875 64.98046875 C-33.42172858 62.88220633 -42.66035026 59.47454371 -51.53515625 54.91796875 C-57.91046897 52.54364468 -63.47167331 54.92509169 -69.53515625 57.10546875 C-70.45026474 57.42655106 -71.36537323 57.74763336 -72.30821228 58.07844543 C-75.22946565 59.10608874 -78.1458774 60.14679657 -81.0625 61.1875 C-82.99645791 61.86865362 -84.9307003 62.5490001 -86.86523438 63.22851562 C-95.86624288 66.40198696 -104.82044711 69.6113203 -113.63452148 73.27856445 C-116 74 -116 74 -119 73 C-111.85595257 53.19150487 -100.64043615 36.33097977 -81 27 C-63.2441502 19.1610025 -44.30766938 13.60955672 -25.93603516 7.40820312 C-24.92471024 7.06659653 -23.91338531 6.72498993 -22.87141418 6.37303162 C-20.95445564 5.72607487 -19.03706794 5.08038791 -17.1191864 4.43617249 C-13.72728187 3.29188338 -10.36999426 2.15120651 -7.05541992 0.79663086 C-4.60344214 -0.1536962 -2.6066128 -0.1489493 0 0 Z " fill="#FE5364" transform="translate(254,0)"/>
<path d="M0 0 C0.13462646 0.82854492 0.13462646 0.82854492 0.27197266 1.67382812 C3.77888958 22.75900237 8.51221177 42.10783178 26 56 C27.5159375 57.2375 27.5159375 57.2375 29.0625 58.5 C29.701875 58.995 30.34125 59.49 31 60 C5.61504249 66.24220267 -22.01239756 63.71613195 -45.54663086 52.28637695 C-52.53142726 48.98432593 -57.21440274 49.83305038 -64.23294067 52.33685303 C-65.14864838 52.67428528 -66.06435608 53.01171753 -67.0078125 53.359375 C-67.96968475 53.70502502 -68.93155701 54.05067505 -69.9225769 54.40679932 C-72.99335349 55.51229505 -76.05922973 56.63070463 -79.125 57.75 C-83.14745258 59.2058543 -87.17148747 60.65731891 -91.1953125 62.109375 C-92.63345306 62.62920959 -92.63345306 62.62920959 -94.10064697 63.1595459 C-113.04887839 70 -113.04887839 70 -117 70 C-115.72011555 58.26772587 -107.11140934 48.02720786 -99 40 C-98.33742188 39.30390625 -97.67484375 38.6078125 -96.9921875 37.890625 C-88.26823446 29.33252658 -76.89061611 24.69491633 -65.34765625 21.23828125 C-55.35846506 18.16275272 -45.49515971 14.76624997 -35.63452148 11.3034668 C-32.77756761 10.30023332 -29.91918582 9.30115517 -27.06054688 8.30273438 C-25.21345938 7.65648515 -23.36645117 7.01000924 -21.51953125 6.36328125 C-20.67985306 6.06948074 -19.84017487 5.77568024 -18.97505188 5.47297668 C-18.17608994 5.19225815 -17.37712799 4.91153961 -16.55395508 4.62231445 C-15.7897525 4.35399811 -15.02554993 4.08568176 -14.2381897 3.80923462 C-12.02635453 3.00952868 -9.84296471 2.15235518 -7.6550293 1.28979492 C-4 0 -4 0 0 0 Z " fill="#3B96D2" transform="translate(198,53)"/>
<path d="M0 0 C4.38777667 1.39822929 8.57670042 3.07233336 12.8125 4.875 C38.83363571 15.56149282 70.84186947 16.6231782 97.17822266 6.13232422 C100.76216628 4.61948423 104.30249541 3.02570922 107.83203125 1.390625 C111 0 111 0 113 0 C111.73889785 19.86235882 106.04023898 39.92397849 91.125 53.875 C77.75192224 64.77158187 62.39356095 66.0587131 45.88671875 64.75390625 C32.93507418 62.93580274 22.09697731 55.63637318 14.03515625 45.5390625 C5.29719948 32.80497232 -0.42354105 15.48277841 0 0 Z " fill="#E47E25" transform="translate(145,102)"/>
<path d="M0 0 C4.27024238 0.66873607 7.90494225 2.12629268 11.875 3.8125 C41.31503722 15.98182998 73.41551856 15.0087186 102.7421875 3.3671875 C105.86959466 2.10839183 105.86959466 2.10839183 108.2578125 0.8203125 C110 0 110 0 113 0 C112.67812016 18.72755412 106.61975087 38.20658017 93.32421875 51.86328125 C84.61830884 59.86686565 84.61830884 59.86686565 78.3125 60.1875 C73.17917349 59.07200852 68.24355142 56.97547177 63.3671875 55.05859375 C57.06554037 53.07744947 53.3423778 53.96772152 47.5 56.875 C38.89166576 61.11767902 38.89166576 61.11767902 35 62 C23.5660374 58.10990779 14.39714308 47.35528409 9 37 C3.31863946 24.754674 0.72166601 13.52174208 0 0 Z " fill="#812D40" transform="translate(254,0)"/>
<path d="M0 0 C4.38777667 1.39822929 8.57670042 3.07233336 12.8125 4.875 C40.61905319 16.32063554 72.03906237 15.66807743 100 5 C102.7574586 3.72705999 105.43211945 2.40027742 108.08203125 0.91796875 C110 0 110 0 113 0 C113.63610746 18.78963564 105.3463882 38.52599396 92.95703125 52.265625 C89.25503353 55.90317788 89.25503353 55.90317788 87 57 C80.67935848 56.73887994 75.11213071 54.32889877 69.31640625 51.99609375 C61.14049918 48.90610356 55.33626148 51.0611694 47.6875 54.5 C34.4078238 60.12382839 34.4078238 60.12382839 29 59 C25.48062902 57.14984975 22.81361124 54.7873158 20 52 C19.38253906 51.41992188 18.76507813 50.83984375 18.12890625 50.2421875 C6.65782135 38.43897765 0.18034339 18.89455265 -0.046875 2.6484375 C-0.03140625 1.77445313 -0.0159375 0.90046875 0 0 Z " fill="#295680" transform="translate(198,53)"/>
<path d="M0 0 C19.47 0 38.94 0 59 0 C59.76758843 6.90829589 60.21275499 13.40820545 60.25 20.3125 C60.270625 21.28767578 60.29125 22.26285156 60.3125 23.26757812 C60.32023437 24.67620117 60.32023437 24.67620117 60.328125 26.11328125 C60.34214355 27.37845581 60.34214355 27.37845581 60.35644531 28.66918945 C59.91106528 31.58154776 59.05880816 32.90835088 57 35 C53.94035317 36.02962984 51.09193738 36.12653661 47.88012695 36.12939453 C46.35383415 36.13412277 46.35383415 36.13412277 44.79670715 36.13894653 C43.15903633 36.13591019 43.15903633 36.13591019 41.48828125 36.1328125 C40.36431442 36.13376923 39.2403476 36.13472595 38.08232117 36.13571167 C35.70942122 36.13639173 33.33651941 36.13454958 30.96362305 36.13037109 C27.31620147 36.12500545 23.6689022 36.13032969 20.02148438 36.13671875 C17.71874973 36.13605823 15.41601515 36.13477762 13.11328125 36.1328125 C12.01542801 36.13483673 10.91757477 36.13686096 9.78645325 36.13894653 C8.7783812 36.13579437 7.77030914 36.13264221 6.73168945 36.12939453 C5.83996536 36.12859894 4.94824127 36.12780334 4.02949524 36.12698364 C2 36 2 36 1 35 C0.84005297 32.408706 0.74053662 29.84026625 0.68359375 27.24609375 C0.65561707 26.21554871 0.65561707 26.21554871 0.6270752 25.16418457 C0.55858812 22.58875842 0.49856053 20.01311293 0.4375 17.4375 C0.293125 11.683125 0.14875 5.92875 0 0 Z " fill="#DF4D60" transform="translate(384,375)"/>
<path d="M0 0 C18.15 0 36.3 0 55 0 C55.61609257 7.39311085 56.20161026 14.6084672 56.25 22 C56.270625 22.81855469 56.29125 23.63710938 56.3125 24.48046875 C56.32023437 25.66576172 56.32023437 25.66576172 56.328125 26.875 C56.34214355 27.92300781 56.34214355 27.92300781 56.35644531 28.9921875 C55.87215149 31.72015492 54.89836809 32.9901547 53 35 C50.66511536 35.48101807 50.66511536 35.48101807 47.88598633 35.45410156 C46.84513382 35.45379944 45.80428131 35.45349731 44.73188782 35.45318604 C43.60993515 35.43254089 42.48798248 35.41189575 41.33203125 35.390625 C40.18208176 35.38496521 39.03213226 35.37930542 37.84733582 35.37347412 C34.1686366 35.35105474 30.49090563 35.3008458 26.8125 35.25 C24.32097759 35.2299423 21.82943994 35.21169026 19.33789062 35.1953125 C13.22492916 35.15117166 7.11253374 35.08420349 1 35 C0.09475143 23.28026405 0 11.79858141 0 0 Z " fill="#2980BA" transform="translate(332,428)"/>
<path d="M0 0 C2.69990662 1.79993774 4.5418865 3.083773 6 6 C6.11750025 8.35591816 6.16539182 10.67081811 6.15625 13.02734375 C6.15365173 14.13818581 6.15365173 14.13818581 6.15100098 15.27146912 C6.04900668 26.38610009 5.22346859 37.47497967 4.5 48.5625 C4.35498004 50.84567214 4.21044549 53.12887516 4.06640625 55.41210938 C3.71652185 60.94177411 3.360689 66.47103006 3 72 C1.07800012 71.8466089 -0.84384598 71.69129004 -2.765625 71.53515625 C-3.83586914 71.44886963 -4.90611328 71.36258301 -6.00878906 71.27368164 C-9.04042006 70.99630176 -12.01135782 70.58112487 -15 70 C-15.10527887 58.57582496 -14.53674807 47.20631299 -13.93798828 35.80078125 C-13.81213288 33.33989953 -13.69403224 30.87860958 -13.58349609 28.41699219 C-13.42246274 24.84195663 -13.2373288 21.26888682 -13.046875 17.6953125 C-13.0018988 16.59631622 -12.95692261 15.49731995 -12.9105835 14.36502075 C-12.46747948 6.76333024 -12.46747948 6.76333024 -10.05957031 2.83154297 C-6.68509359 -0.16932526 -4.48613857 -0.43981751 0 0 Z " fill="#F19D1E" transform="translate(76,202)"/>
<path d="M0 0 C3.31371464 2.61537358 4.810439 4.16216132 5.7512207 8.3203125 C5.83762817 10.20363281 5.83762817 10.20363281 5.92578125 12.125 C5.96318924 12.81708054 6.00059723 13.50916107 6.03913879 14.22221375 C6.15415411 16.48107186 6.23417612 18.7395966 6.3125 21 C6.38329036 22.56231588 6.4554064 24.12457223 6.52880859 25.68676758 C7.1648173 40.12177473 7.1986443 54.55414493 7 69 C-1.415 69.99 -1.415 69.99 -10 71 C-12.42246079 34.61605003 -12.42246079 34.61605003 -12.91650391 21.20263672 C-12.97153724 19.75085103 -13.03354787 18.2993106 -13.10302734 16.84814453 C-13.19388116 14.8996299 -13.25414809 12.94975864 -13.3125 11 C-13.34988281 9.948125 -13.38726562 8.89625 -13.42578125 7.8125 C-12.88191512 4.21998978 -11.49147122 2.58854153 -9 0 C-5.77509551 -1.61245225 -3.43772273 -0.81573082 0 0 Z " fill="#F19C1F" transform="translate(334,203)"/>
<path d="M0 0 C3.0393606 2.08465923 4.7212827 3.76864869 5.54898071 7.425354 C5.87008397 10.51907638 6.03192064 13.58696341 6.14453125 16.6953125 C6.20404465 17.83853973 6.26355804 18.98176697 6.32487488 20.15963745 C6.50949081 23.81407092 6.66109172 27.46905578 6.8125 31.125 C6.93214594 33.56260392 7.05386846 36.00010687 7.17773438 38.4375 C7.67756996 48.63196117 8.08766195 58.79146128 8 69 C4.535 69.495 4.535 69.495 1 70 C-17.58437215 22.63880085 -17.58437215 22.63880085 -13 5 C-9.26913746 -0.91094487 -6.75761995 -1.60350304 0 0 Z " fill="#DF4D60" transform="translate(443,101)"/>
<path d="M0 0 C2.3181362 1.89111111 3.66914015 3.33828031 5 6 C5.22881849 8.97031601 5.40283077 11.92345409 5.53515625 14.8984375 C5.57813339 15.80260406 5.62111053 16.70677063 5.66539001 17.63833618 C5.75580383 19.56673008 5.84391374 21.49523314 5.92993164 23.42382812 C6.05918229 26.3011427 6.19792826 29.17787673 6.33789062 32.0546875 C6.91544666 44.37827452 7.11358513 56.66381306 7 69 C6.34 69 5.68 69 5 69 C4.39526855 67.22338989 4.39526855 67.22338989 3.77832031 65.41088867 C2.26611733 60.96925518 0.75241323 56.52813444 -0.76171875 52.0871582 C-1.41381393 50.17388387 -2.0655151 48.2604752 -2.71679688 46.34692383 C-3.65909071 43.57857438 -4.60279005 40.81070783 -5.546875 38.04296875 C-5.85077148 37.14984985 -6.15466797 36.25673096 -6.46777344 35.33654785 C-8.04547272 30.71814856 -9.68424057 26.13550913 -11.421875 21.57421875 C-13.4733334 15.99233072 -13.89854281 10.89338371 -13 5 C-9.44640493 -1.04111162 -6.66971951 -1.49493713 0 0 Z " fill="#2A80B9" transform="translate(387,154)"/>
</svg>
